<?xml version="1.0" encoding="utf-8" standalone="no"?>
<!DOCTYPE svg PUBLIC "-//W3C//DTD SVG 1.1//EN"
  "http://www.w3.org/Graphics/SVG/1.1/DTD/svg11.dtd">
<svg xmlns:xlink="http://www.w3.org/1999/xlink" width="532.6272pt" height="279.821845pt" viewBox="0 0 532.6272 279.821845" xmlns="http://www.w3.org/2000/svg" version="1.1">
 <metadata>
  <rdf:RDF xmlns:dc="http://purl.org/dc/elements/1.1/" xmlns:cc="http://creativecommons.org/ns#" xmlns:rdf="http://www.w3.org/1999/02/22-rdf-syntax-ns#">
   <cc:Work>
    <dc:type rdf:resource="http://purl.org/dc/dcmitype/StillImage"/>
    <dc:date>2026-05-19T22:40:49.518156</dc:date>
    <dc:format>image/svg+xml</dc:format>
    <dc:creator>
     <cc:Agent>
      <dc:title>Matplotlib v3.10.9, https://matplotlib.org/</dc:title>
     </cc:Agent>
    </dc:creator>
   </cc:Work>
  </rdf:RDF>
 </metadata>
 <defs>
  <style type="text/css">*{stroke-linejoin: round; stroke-linecap: butt}</style>
 </defs>
 <g id="figure_1">
  <g id="patch_1">
   <path d="M 0 279.821845 
L 532.6272 279.821845 
L 532.6272 0 
L 0 0 
z
" style="fill: #ffffff"/>
  </g>
  <g id="axes_1">
   <g id="text_1">
    <!-- Figure 11 — per-module wall-clock latency -->
    <g style="fill: #444444" transform="translate(160.266725 127.314751) scale(0.1 -0.1)">
     <defs>
      <path id="DejaVuSans-46" d="M 628 4666 
L 3309 4666 
L 3309 4134 
L 1259 4134 
L 1259 2759 
L 3109 2759 
L 3109 2228 
L 1259 2228 
L 1259 0 
L 628 0 
L 628 4666 
z
" transform="scale(0.015625)"/>
      <path id="DejaVuSans-69" d="M 603 3500 
L 1178 3500 
L 1178 0 
L 603 0 
L 603 3500 
z
M 603 4863 
L 1178 4863 
L 1178 4134 
L 603 4134 
L 603 4863 
z
" transform="scale(0.015625)"/>
      <path id="DejaVuSans-67" d="M 2906 1791 
Q 2906 2416 2648 2759 
Q 2391 3103 1925 3103 
Q 1463 3103 1205 2759 
Q 947 2416 947 1791 
Q 947 1169 1205 825 
Q 1463 481 1925 481 
Q 2391 481 2648 825 
Q 2906 1169 2906 1791 
z
M 3481 434 
Q 3481 -459 3084 -895 
Q 2688 -1331 1869 -1331 
Q 1566 -1331 1297 -1286 
Q 1028 -1241 775 -1147 
L 775 -588 
Q 1028 -725 1275 -790 
Q 1522 -856 1778 -856 
Q 2344 -856 2625 -561 
Q 2906 -266 2906 331 
L 2906 616 
Q 2728 306 2450 153 
Q 2172 0 1784 0 
Q 1141 0 747 490 
Q 353 981 353 1791 
Q 353 2603 747 3093 
Q 1141 3584 1784 3584 
Q 2172 3584 2450 3431 
Q 2728 3278 2906 2969 
L 2906 3500 
L 3481 3500 
L 3481 434 
z
" transform="scale(0.015625)"/>
      <path id="DejaVuSans-75" d="M 544 1381 
L 544 3500 
L 1119 3500 
L 1119 1403 
Q 1119 906 1312 657 
Q 1506 409 1894 409 
Q 2359 409 2629 706 
Q 2900 1003 2900 1516 
L 2900 3500 
L 3475 3500 
L 3475 0 
L 2900 0 
L 2900 538 
Q 2691 219 2414 64 
Q 2138 -91 1772 -91 
Q 1169 -91 856 284 
Q 544 659 544 1381 
z
M 1991 3584 
L 1991 3584 
z
" transform="scale(0.015625)"/>
      <path id="DejaVuSans-72" d="M 2631 2963 
Q 2534 3019 2420 3045 
Q 2306 3072 2169 3072 
Q 1681 3072 1420 2755 
Q 1159 2438 1159 1844 
L 1159 0 
L 581 0 
L 581 3500 
L 1159 3500 
L 1159 2956 
Q 1341 3275 1631 3429 
Q 1922 3584 2338 3584 
Q 2397 3584 2469 3576 
Q 2541 3569 2628 3553 
L 2631 2963 
z
" transform="scale(0.015625)"/>
      <path id="DejaVuSans-65" d="M 3597 1894 
L 3597 1613 
L 953 1613 
Q 991 1019 1311 708 
Q 1631 397 2203 397 
Q 2534 397 2845 478 
Q 3156 559 3463 722 
L 3463 178 
Q 3153 47 2828 -22 
Q 2503 -91 2169 -91 
Q 1331 -91 842 396 
Q 353 884 353 1716 
Q 353 2575 817 3079 
Q 1281 3584 2069 3584 
Q 2775 3584 3186 3129 
Q 3597 2675 3597 1894 
z
M 3022 2063 
Q 3016 2534 2758 2815 
Q 2500 3097 2075 3097 
Q 1594 3097 1305 2825 
Q 1016 2553 972 2059 
L 3022 2063 
z
" transform="scale(0.015625)"/>
      <path id="DejaVuSans-20" transform="scale(0.015625)"/>
      <path id="DejaVuSans-31" d="M 794 531 
L 1825 531 
L 1825 4091 
L 703 3866 
L 703 4441 
L 1819 4666 
L 2450 4666 
L 2450 531 
L 3481 531 
L 3481 0 
L 794 0 
L 794 531 
z
" transform="scale(0.015625)"/>
      <path id="DejaVuSans-2014" d="M 313 1978 
L 6088 1978 
L 6088 1528 
L 313 1528 
L 313 1978 
z
" transform="scale(0.015625)"/>
      <path id="DejaVuSans-70" d="M 1159 525 
L 1159 -1331 
L 581 -1331 
L 581 3500 
L 1159 3500 
L 1159 2969 
Q 1341 3281 1617 3432 
Q 1894 3584 2278 3584 
Q 2916 3584 3314 3078 
Q 3713 2572 3713 1747 
Q 3713 922 3314 415 
Q 2916 -91 2278 -91 
Q 1894 -91 1617 61 
Q 1341 213 1159 525 
z
M 3116 1747 
Q 3116 2381 2855 2742 
Q 2594 3103 2138 3103 
Q 1681 3103 1420 2742 
Q 1159 2381 1159 1747 
Q 1159 1113 1420 752 
Q 1681 391 2138 391 
Q 2594 391 2855 752 
Q 3116 1113 3116 1747 
z
" transform="scale(0.015625)"/>
      <path id="DejaVuSans-2d" d="M 313 2009 
L 1997 2009 
L 1997 1497 
L 313 1497 
L 313 2009 
z
" transform="scale(0.015625)"/>
      <path id="DejaVuSans-6d" d="M 3328 2828 
Q 3544 3216 3844 3400 
Q 4144 3584 4550 3584 
Q 5097 3584 5394 3201 
Q 5691 2819 5691 2113 
L 5691 0 
L 5113 0 
L 5113 2094 
Q 5113 2597 4934 2840 
Q 4756 3084 4391 3084 
Q 3944 3084 3684 2787 
Q 3425 2491 3425 1978 
L 3425 0 
L 2847 0 
L 2847 2094 
Q 2847 2600 2669 2842 
Q 2491 3084 2119 3084 
Q 1678 3084 1418 2786 
Q 1159 2488 1159 1978 
L 1159 0 
L 581 0 
L 581 3500 
L 1159 3500 
L 1159 2956 
Q 1356 3278 1631 3431 
Q 1906 3584 2284 3584 
Q 2666 3584 2933 3390 
Q 3200 3197 3328 2828 
z
" transform="scale(0.015625)"/>
      <path id="DejaVuSans-6f" d="M 1959 3097 
Q 1497 3097 1228 2736 
Q 959 2375 959 1747 
Q 959 1119 1226 758 
Q 1494 397 1959 397 
Q 2419 397 2687 759 
Q 2956 1122 2956 1747 
Q 2956 2369 2687 2733 
Q 2419 3097 1959 3097 
z
M 1959 3584 
Q 2709 3584 3137 3096 
Q 3566 2609 3566 1747 
Q 3566 888 3137 398 
Q 2709 -91 1959 -91 
Q 1206 -91 779 398 
Q 353 888 353 1747 
Q 353 2609 779 3096 
Q 1206 3584 1959 3584 
z
" transform="scale(0.015625)"/>
      <path id="DejaVuSans-64" d="M 2906 2969 
L 2906 4863 
L 3481 4863 
L 3481 0 
L 2906 0 
L 2906 525 
Q 2725 213 2448 61 
Q 2172 -91 1784 -91 
Q 1150 -91 751 415 
Q 353 922 353 1747 
Q 353 2572 751 3078 
Q 1150 3584 1784 3584 
Q 2172 3584 2448 3432 
Q 2725 3281 2906 2969 
z
M 947 1747 
Q 947 1113 1208 752 
Q 1469 391 1925 391 
Q 2381 391 2643 752 
Q 2906 1113 2906 1747 
Q 2906 2381 2643 2742 
Q 2381 3103 1925 3103 
Q 1469 3103 1208 2742 
Q 947 2381 947 1747 
z
" transform="scale(0.015625)"/>
      <path id="DejaVuSans-6c" d="M 603 4863 
L 1178 4863 
L 1178 0 
L 603 0 
L 603 4863 
z
" transform="scale(0.015625)"/>
      <path id="DejaVuSans-77" d="M 269 3500 
L 844 3500 
L 1563 769 
L 2278 3500 
L 2956 3500 
L 3675 769 
L 4391 3500 
L 4966 3500 
L 4050 0 
L 3372 0 
L 2619 2869 
L 1863 0 
L 1184 0 
L 269 3500 
z
" transform="scale(0.015625)"/>
      <path id="DejaVuSans-61" d="M 2194 1759 
Q 1497 1759 1228 1600 
Q 959 1441 959 1056 
Q 959 750 1161 570 
Q 1363 391 1709 391 
Q 2188 391 2477 730 
Q 2766 1069 2766 1631 
L 2766 1759 
L 2194 1759 
z
M 3341 1997 
L 3341 0 
L 2766 0 
L 2766 531 
Q 2569 213 2275 61 
Q 1981 -91 1556 -91 
Q 1019 -91 701 211 
Q 384 513 384 1019 
Q 384 1609 779 1909 
Q 1175 2209 1959 2209 
L 2766 2209 
L 2766 2266 
Q 2766 2663 2505 2880 
Q 2244 3097 1772 3097 
Q 1472 3097 1187 3025 
Q 903 2953 641 2809 
L 641 3341 
Q 956 3463 1253 3523 
Q 1550 3584 1831 3584 
Q 2591 3584 2966 3190 
Q 3341 2797 3341 1997 
z
" transform="scale(0.015625)"/>
      <path id="DejaVuSans-63" d="M 3122 3366 
L 3122 2828 
Q 2878 2963 2633 3030 
Q 2388 3097 2138 3097 
Q 1578 3097 1268 2742 
Q 959 2388 959 1747 
Q 959 1106 1268 751 
Q 1578 397 2138 397 
Q 2388 397 2633 464 
Q 2878 531 3122 666 
L 3122 134 
Q 2881 22 2623 -34 
Q 2366 -91 2075 -91 
Q 1284 -91 818 406 
Q 353 903 353 1747 
Q 353 2603 823 3093 
Q 1294 3584 2113 3584 
Q 2378 3584 2631 3529 
Q 2884 3475 3122 3366 
z
" transform="scale(0.015625)"/>
      <path id="DejaVuSans-6b" d="M 581 4863 
L 1159 4863 
L 1159 1991 
L 2875 3500 
L 3609 3500 
L 1753 1863 
L 3688 0 
L 2938 0 
L 1159 1709 
L 1159 0 
L 581 0 
L 581 4863 
z
" transform="scale(0.015625)"/>
      <path id="DejaVuSans-74" d="M 1172 4494 
L 1172 3500 
L 2356 3500 
L 2356 3053 
L 1172 3053 
L 1172 1153 
Q 1172 725 1289 603 
Q 1406 481 1766 481 
L 2356 481 
L 2356 0 
L 1766 0 
Q 1100 0 847 248 
Q 594 497 594 1153 
L 594 3053 
L 172 3053 
L 172 3500 
L 594 3500 
L 594 4494 
L 1172 4494 
z
" transform="scale(0.015625)"/>
      <path id="DejaVuSans-6e" d="M 3513 2113 
L 3513 0 
L 2938 0 
L 2938 2094 
Q 2938 2591 2744 2837 
Q 2550 3084 2163 3084 
Q 1697 3084 1428 2787 
Q 1159 2491 1159 1978 
L 1159 0 
L 581 0 
L 581 3500 
L 1159 3500 
L 1159 2956 
Q 1366 3272 1645 3428 
Q 1925 3584 2291 3584 
Q 2894 3584 3203 3211 
Q 3513 2838 3513 2113 
z
" transform="scale(0.015625)"/>
      <path id="DejaVuSans-79" d="M 2059 -325 
Q 1816 -950 1584 -1140 
Q 1353 -1331 966 -1331 
L 506 -1331 
L 506 -850 
L 844 -850 
Q 1081 -850 1212 -737 
Q 1344 -625 1503 -206 
L 1606 56 
L 191 3500 
L 800 3500 
L 1894 763 
L 2988 3500 
L 3597 3500 
L 2059 -325 
z
" transform="scale(0.015625)"/>
     </defs>
     <use xlink:href="#DejaVuSans-46"/>
     <use xlink:href="#DejaVuSans-69" transform="translate(50.269531 0)"/>
     <use xlink:href="#DejaVuSans-67" transform="translate(78.052734 0)"/>
     <use xlink:href="#DejaVuSans-75" transform="translate(141.529297 0)"/>
     <use xlink:href="#DejaVuSans-72" transform="translate(204.908203 0)"/>
     <use xlink:href="#DejaVuSans-65" transform="translate(243.771484 0)"/>
     <use xlink:href="#DejaVuSans-20" transform="translate(305.294922 0)"/>
     <use xlink:href="#DejaVuSans-31" transform="translate(337.082031 0)"/>
     <use xlink:href="#DejaVuSans-31" transform="translate(400.705078 0)"/>
     <use xlink:href="#DejaVuSans-20" transform="translate(464.328125 0)"/>
     <use xlink:href="#DejaVuSans-2014" transform="translate(496.115234 0)"/>
     <use xlink:href="#DejaVuSans-20" transform="translate(596.115234 0)"/>
     <use xlink:href="#DejaVuSans-70" transform="translate(627.902344 0)"/>
     <use xlink:href="#DejaVuSans-65" transform="translate(691.378906 0)"/>
     <use xlink:href="#DejaVuSans-72" transform="translate(752.902344 0)"/>
     <use xlink:href="#DejaVuSans-2d" transform="translate(787.640625 0)"/>
     <use xlink:href="#DejaVuSans-6d" transform="translate(823.724609 0)"/>
     <use xlink:href="#DejaVuSans-6f" transform="translate(921.136719 0)"/>
     <use xlink:href="#DejaVuSans-64" transform="translate(982.318359 0)"/>
     <use xlink:href="#DejaVuSans-75" transform="translate(1045.794922 0)"/>
     <use xlink:href="#DejaVuSans-6c" transform="translate(1109.173828 0)"/>
     <use xlink:href="#DejaVuSans-65" transform="translate(1136.957031 0)"/>
     <use xlink:href="#DejaVuSans-20" transform="translate(1198.480469 0)"/>
     <use xlink:href="#DejaVuSans-77" transform="translate(1230.267578 0)"/>
     <use xlink:href="#DejaVuSans-61" transform="translate(1312.054688 0)"/>
     <use xlink:href="#DejaVuSans-6c" transform="translate(1373.333984 0)"/>
     <use xlink:href="#DejaVuSans-6c" transform="translate(1401.117188 0)"/>
     <use xlink:href="#DejaVuSans-2d" transform="translate(1428.900391 0)"/>
     <use xlink:href="#DejaVuSans-63" transform="translate(1464.984375 0)"/>
     <use xlink:href="#DejaVuSans-6c" transform="translate(1519.964844 0)"/>
     <use xlink:href="#DejaVuSans-6f" transform="translate(1547.748047 0)"/>
     <use xlink:href="#DejaVuSans-63" transform="translate(1608.929688 0)"/>
     <use xlink:href="#DejaVuSans-6b" transform="translate(1663.910156 0)"/>
     <use xlink:href="#DejaVuSans-20" transform="translate(1721.820312 0)"/>
     <use xlink:href="#DejaVuSans-6c" transform="translate(1753.607422 0)"/>
     <use xlink:href="#DejaVuSans-61" transform="translate(1781.390625 0)"/>
     <use xlink:href="#DejaVuSans-74" transform="translate(1842.669922 0)"/>
     <use xlink:href="#DejaVuSans-65" transform="translate(1881.878906 0)"/>
     <use xlink:href="#DejaVuSans-6e" transform="translate(1943.402344 0)"/>
     <use xlink:href="#DejaVuSans-63" transform="translate(2006.78125 0)"/>
     <use xlink:href="#DejaVuSans-79" transform="translate(2061.761719 0)"/>
    </g>
    <!--  -->
    <g style="fill: #444444" transform="translate(266.3136 138.512563) scale(0.1 -0.1)"/>
    <!-- All measurements ≤ 5 ms (mock-LLM pipeline). -->
    <g style="fill: #444444" transform="translate(147.658131 149.710376) scale(0.1 -0.1)">
     <defs>
      <path id="DejaVuSans-41" d="M 2188 4044 
L 1331 1722 
L 3047 1722 
L 2188 4044 
z
M 1831 4666 
L 2547 4666 
L 4325 0 
L 3669 0 
L 3244 1197 
L 1141 1197 
L 716 0 
L 50 0 
L 1831 4666 
z
" transform="scale(0.015625)"/>
      <path id="DejaVuSans-73" d="M 2834 3397 
L 2834 2853 
Q 2591 2978 2328 3040 
Q 2066 3103 1784 3103 
Q 1356 3103 1142 2972 
Q 928 2841 928 2578 
Q 928 2378 1081 2264 
Q 1234 2150 1697 2047 
L 1894 2003 
Q 2506 1872 2764 1633 
Q 3022 1394 3022 966 
Q 3022 478 2636 193 
Q 2250 -91 1575 -91 
Q 1294 -91 989 -36 
Q 684 19 347 128 
L 347 722 
Q 666 556 975 473 
Q 1284 391 1588 391 
Q 1994 391 2212 530 
Q 2431 669 2431 922 
Q 2431 1156 2273 1281 
Q 2116 1406 1581 1522 
L 1381 1569 
Q 847 1681 609 1914 
Q 372 2147 372 2553 
Q 372 3047 722 3315 
Q 1072 3584 1716 3584 
Q 2034 3584 2315 3537 
Q 2597 3491 2834 3397 
z
" transform="scale(0.015625)"/>
      <path id="DejaVuSans-2264" d="M 4684 3175 
L 1684 2309 
L 4684 1453 
L 4684 897 
L 678 2047 
L 678 2578 
L 4684 3725 
L 4684 3175 
z
M 678 531 
L 4684 531 
L 4684 0 
L 678 0 
L 678 531 
z
" transform="scale(0.015625)"/>
      <path id="DejaVuSans-35" d="M 691 4666 
L 3169 4666 
L 3169 4134 
L 1269 4134 
L 1269 2991 
Q 1406 3038 1543 3061 
Q 1681 3084 1819 3084 
Q 2600 3084 3056 2656 
Q 3513 2228 3513 1497 
Q 3513 744 3044 326 
Q 2575 -91 1722 -91 
Q 1428 -91 1123 -41 
Q 819 9 494 109 
L 494 744 
Q 775 591 1075 516 
Q 1375 441 1709 441 
Q 2250 441 2565 725 
Q 2881 1009 2881 1497 
Q 2881 1984 2565 2268 
Q 2250 2553 1709 2553 
Q 1456 2553 1204 2497 
Q 953 2441 691 2322 
L 691 4666 
z
" transform="scale(0.015625)"/>
      <path id="DejaVuSans-28" d="M 1984 4856 
Q 1566 4138 1362 3434 
Q 1159 2731 1159 2009 
Q 1159 1288 1364 580 
Q 1569 -128 1984 -844 
L 1484 -844 
Q 1016 -109 783 600 
Q 550 1309 550 2009 
Q 550 2706 781 3412 
Q 1013 4119 1484 4856 
L 1984 4856 
z
" transform="scale(0.015625)"/>
      <path id="DejaVuSans-4c" d="M 628 4666 
L 1259 4666 
L 1259 531 
L 3531 531 
L 3531 0 
L 628 0 
L 628 4666 
z
" transform="scale(0.015625)"/>
      <path id="DejaVuSans-4d" d="M 628 4666 
L 1569 4666 
L 2759 1491 
L 3956 4666 
L 4897 4666 
L 4897 0 
L 4281 0 
L 4281 4097 
L 3078 897 
L 2444 897 
L 1241 4097 
L 1241 0 
L 628 0 
L 628 4666 
z
" transform="scale(0.015625)"/>
      <path id="DejaVuSans-29" d="M 513 4856 
L 1013 4856 
Q 1481 4119 1714 3412 
Q 1947 2706 1947 2009 
Q 1947 1309 1714 600 
Q 1481 -109 1013 -844 
L 513 -844 
Q 928 -128 1133 580 
Q 1338 1288 1338 2009 
Q 1338 2731 1133 3434 
Q 928 4138 513 4856 
z
" transform="scale(0.015625)"/>
      <path id="DejaVuSans-2e" d="M 684 794 
L 1344 794 
L 1344 0 
L 684 0 
L 684 794 
z
" transform="scale(0.015625)"/>
     </defs>
     <use xlink:href="#DejaVuSans-41"/>
     <use xlink:href="#DejaVuSans-6c" transform="translate(68.408203 0)"/>
     <use xlink:href="#DejaVuSans-6c" transform="translate(96.191406 0)"/>
     <use xlink:href="#DejaVuSans-20" transform="translate(123.974609 0)"/>
     <use xlink:href="#DejaVuSans-6d" transform="translate(155.761719 0)"/>
     <use xlink:href="#DejaVuSans-65" transform="translate(253.173828 0)"/>
     <use xlink:href="#DejaVuSans-61" transform="translate(314.697266 0)"/>
     <use xlink:href="#DejaVuSans-73" transform="translate(375.976562 0)"/>
     <use xlink:href="#DejaVuSans-75" transform="translate(428.076172 0)"/>
     <use xlink:href="#DejaVuSans-72" transform="translate(491.455078 0)"/>
     <use xlink:href="#DejaVuSans-65" transform="translate(530.318359 0)"/>
     <use xlink:href="#DejaVuSans-6d" transform="translate(591.841797 0)"/>
     <use xlink:href="#DejaVuSans-65" transform="translate(689.253906 0)"/>
     <use xlink:href="#DejaVuSans-6e" transform="translate(750.777344 0)"/>
     <use xlink:href="#DejaVuSans-74" transform="translate(814.15625 0)"/>
     <use xlink:href="#DejaVuSans-73" transform="translate(853.365234 0)"/>
     <use xlink:href="#DejaVuSans-20" transform="translate(905.464844 0)"/>
     <use xlink:href="#DejaVuSans-2264" transform="translate(937.251953 0)"/>
     <use xlink:href="#DejaVuSans-20" transform="translate(1021.041016 0)"/>
     <use xlink:href="#DejaVuSans-35" transform="translate(1052.828125 0)"/>
     <use xlink:href="#DejaVuSans-20" transform="translate(1116.451172 0)"/>
     <use xlink:href="#DejaVuSans-6d" transform="translate(1148.238281 0)"/>
     <use xlink:href="#DejaVuSans-73" transform="translate(1245.650391 0)"/>
     <use xlink:href="#DejaVuSans-20" transform="translate(1297.75 0)"/>
     <use xlink:href="#DejaVuSans-28" transform="translate(1329.537109 0)"/>
     <use xlink:href="#DejaVuSans-6d" transform="translate(1368.550781 0)"/>
     <use xlink:href="#DejaVuSans-6f" transform="translate(1465.962891 0)"/>
     <use xlink:href="#DejaVuSans-63" transform="translate(1527.144531 0)"/>
     <use xlink:href="#DejaVuSans-6b" transform="translate(1582.125 0)"/>
     <use xlink:href="#DejaVuSans-2d" transform="translate(1640.035156 0)"/>
     <use xlink:href="#DejaVuSans-4c" transform="translate(1676.119141 0)"/>
     <use xlink:href="#DejaVuSans-4c" transform="translate(1731.832031 0)"/>
     <use xlink:href="#DejaVuSans-4d" transform="translate(1787.544922 0)"/>
     <use xlink:href="#DejaVuSans-20" transform="translate(1873.824219 0)"/>
     <use xlink:href="#DejaVuSans-70" transform="translate(1905.611328 0)"/>
     <use xlink:href="#DejaVuSans-69" transform="translate(1969.087891 0)"/>
     <use xlink:href="#DejaVuSans-70" transform="translate(1996.871094 0)"/>
     <use xlink:href="#DejaVuSans-65" transform="translate(2060.347656 0)"/>
     <use xlink:href="#DejaVuSans-6c" transform="translate(2121.871094 0)"/>
     <use xlink:href="#DejaVuSans-69" transform="translate(2149.654297 0)"/>
     <use xlink:href="#DejaVuSans-6e" transform="translate(2177.4375 0)"/>
     <use xlink:href="#DejaVuSans-65" transform="translate(2240.816406 0)"/>
     <use xlink:href="#DejaVuSans-29" transform="translate(2302.339844 0)"/>
     <use xlink:href="#DejaVuSans-2e" transform="translate(2341.353516 0)"/>
    </g>
    <!-- This figure populates when the real-LLM pipeline is run -->
    <g style="fill: #444444" transform="translate(129.106569 160.908188) scale(0.1 -0.1)">
     <defs>
      <path id="DejaVuSans-54" d="M -19 4666 
L 3928 4666 
L 3928 4134 
L 2272 4134 
L 2272 0 
L 1638 0 
L 1638 4134 
L -19 4134 
L -19 4666 
z
" transform="scale(0.015625)"/>
      <path id="DejaVuSans-68" d="M 3513 2113 
L 3513 0 
L 2938 0 
L 2938 2094 
Q 2938 2591 2744 2837 
Q 2550 3084 2163 3084 
Q 1697 3084 1428 2787 
Q 1159 2491 1159 1978 
L 1159 0 
L 581 0 
L 581 4863 
L 1159 4863 
L 1159 2956 
Q 1366 3272 1645 3428 
Q 1925 3584 2291 3584 
Q 2894 3584 3203 3211 
Q 3513 2838 3513 2113 
z
" transform="scale(0.015625)"/>
      <path id="DejaVuSans-66" d="M 2375 4863 
L 2375 4384 
L 1825 4384 
Q 1516 4384 1395 4259 
Q 1275 4134 1275 3809 
L 1275 3500 
L 2222 3500 
L 2222 3053 
L 1275 3053 
L 1275 0 
L 697 0 
L 697 3053 
L 147 3053 
L 147 3500 
L 697 3500 
L 697 3744 
Q 697 4328 969 4595 
Q 1241 4863 1831 4863 
L 2375 4863 
z
" transform="scale(0.015625)"/>
     </defs>
     <use xlink:href="#DejaVuSans-54"/>
     <use xlink:href="#DejaVuSans-68" transform="translate(61.083984 0)"/>
     <use xlink:href="#DejaVuSans-69" transform="translate(124.462891 0)"/>
     <use xlink:href="#DejaVuSans-73" transform="translate(152.246094 0)"/>
     <use xlink:href="#DejaVuSans-20" transform="translate(204.345703 0)"/>
     <use xlink:href="#DejaVuSans-66" transform="translate(236.132812 0)"/>
     <use xlink:href="#DejaVuSans-69" transform="translate(271.337891 0)"/>
     <use xlink:href="#DejaVuSans-67" transform="translate(299.121094 0)"/>
     <use xlink:href="#DejaVuSans-75" transform="translate(362.597656 0)"/>
     <use xlink:href="#DejaVuSans-72" transform="translate(425.976562 0)"/>
     <use xlink:href="#DejaVuSans-65" transform="translate(464.839844 0)"/>
     <use xlink:href="#DejaVuSans-20" transform="translate(526.363281 0)"/>
     <use xlink:href="#DejaVuSans-70" transform="translate(558.150391 0)"/>
     <use xlink:href="#DejaVuSans-6f" transform="translate(621.626953 0)"/>
     <use xlink:href="#DejaVuSans-70" transform="translate(682.808594 0)"/>
     <use xlink:href="#DejaVuSans-75" transform="translate(746.285156 0)"/>
     <use xlink:href="#DejaVuSans-6c" transform="translate(809.664062 0)"/>
     <use xlink:href="#DejaVuSans-61" transform="translate(837.447266 0)"/>
     <use xlink:href="#DejaVuSans-74" transform="translate(898.726562 0)"/>
     <use xlink:href="#DejaVuSans-65" transform="translate(937.935547 0)"/>
     <use xlink:href="#DejaVuSans-73" transform="translate(999.458984 0)"/>
     <use xlink:href="#DejaVuSans-20" transform="translate(1051.558594 0)"/>
     <use xlink:href="#DejaVuSans-77" transform="translate(1083.345703 0)"/>
     <use xlink:href="#DejaVuSans-68" transform="translate(1165.132812 0)"/>
     <use xlink:href="#DejaVuSans-65" transform="translate(1228.511719 0)"/>
     <use xlink:href="#DejaVuSans-6e" transform="translate(1290.035156 0)"/>
     <use xlink:href="#DejaVuSans-20" transform="translate(1353.414062 0)"/>
     <use xlink:href="#DejaVuSans-74" transform="translate(1385.201172 0)"/>
     <use xlink:href="#DejaVuSans-68" transform="translate(1424.410156 0)"/>
     <use xlink:href="#DejaVuSans-65" transform="translate(1487.789062 0)"/>
     <use xlink:href="#DejaVuSans-20" transform="translate(1549.3125 0)"/>
     <use xlink:href="#DejaVuSans-72" transform="translate(1581.099609 0)"/>
     <use xlink:href="#DejaVuSans-65" transform="translate(1619.962891 0)"/>
     <use xlink:href="#DejaVuSans-61" transform="translate(1681.486328 0)"/>
     <use xlink:href="#DejaVuSans-6c" transform="translate(1742.765625 0)"/>
     <use xlink:href="#DejaVuSans-2d" transform="translate(1770.548828 0)"/>
     <use xlink:href="#DejaVuSans-4c" transform="translate(1806.632812 0)"/>
     <use xlink:href="#DejaVuSans-4c" transform="translate(1862.345703 0)"/>
     <use xlink:href="#DejaVuSans-4d" transform="translate(1918.058594 0)"/>
     <use xlink:href="#DejaVuSans-20" transform="translate(2004.337891 0)"/>
     <use xlink:href="#DejaVuSans-70" transform="translate(2036.125 0)"/>
     <use xlink:href="#DejaVuSans-69" transform="translate(2099.601562 0)"/>
     <use xlink:href="#DejaVuSans-70" transform="translate(2127.384766 0)"/>
     <use xlink:href="#DejaVuSans-65" transform="translate(2190.861328 0)"/>
     <use xlink:href="#DejaVuSans-6c" transform="translate(2252.384766 0)"/>
     <use xlink:href="#DejaVuSans-69" transform="translate(2280.167969 0)"/>
     <use xlink:href="#DejaVuSans-6e" transform="translate(2307.951172 0)"/>
     <use xlink:href="#DejaVuSans-65" transform="translate(2371.330078 0)"/>
     <use xlink:href="#DejaVuSans-20" transform="translate(2432.853516 0)"/>
     <use xlink:href="#DejaVuSans-69" transform="translate(2464.640625 0)"/>
     <use xlink:href="#DejaVuSans-73" transform="translate(2492.423828 0)"/>
     <use xlink:href="#DejaVuSans-20" transform="translate(2544.523438 0)"/>
     <use xlink:href="#DejaVuSans-72" transform="translate(2576.310547 0)"/>
     <use xlink:href="#DejaVuSans-75" transform="translate(2617.423828 0)"/>
     <use xlink:href="#DejaVuSans-6e" transform="translate(2680.802734 0)"/>
    </g>
    <!-- (scripts/run_demo.py - -all  with the vLLM server up). -->
    <g style="fill: #444444" transform="translate(135.490162 172.106001) scale(0.1 -0.1)">
     <defs>
      <path id="DejaVuSans-2f" d="M 1625 4666 
L 2156 4666 
L 531 -594 
L 0 -594 
L 1625 4666 
z
" transform="scale(0.015625)"/>
      <path id="DejaVuSans-5f" d="M 3263 -1063 
L 3263 -1509 
L -63 -1509 
L -63 -1063 
L 3263 -1063 
z
" transform="scale(0.015625)"/>
      <path id="DejaVuSans-76" d="M 191 3500 
L 800 3500 
L 1894 563 
L 2988 3500 
L 3597 3500 
L 2284 0 
L 1503 0 
L 191 3500 
z
" transform="scale(0.015625)"/>
     </defs>
     <use xlink:href="#DejaVuSans-28"/>
     <use xlink:href="#DejaVuSans-73" transform="translate(39.013672 0)"/>
     <use xlink:href="#DejaVuSans-63" transform="translate(91.113281 0)"/>
     <use xlink:href="#DejaVuSans-72" transform="translate(146.09375 0)"/>
     <use xlink:href="#DejaVuSans-69" transform="translate(187.207031 0)"/>
     <use xlink:href="#DejaVuSans-70" transform="translate(214.990234 0)"/>
     <use xlink:href="#DejaVuSans-74" transform="translate(278.466797 0)"/>
     <use xlink:href="#DejaVuSans-73" transform="translate(317.675781 0)"/>
     <use xlink:href="#DejaVuSans-2f" transform="translate(369.775391 0)"/>
     <use xlink:href="#DejaVuSans-72" transform="translate(403.466797 0)"/>
     <use xlink:href="#DejaVuSans-75" transform="translate(444.580078 0)"/>
     <use xlink:href="#DejaVuSans-6e" transform="translate(507.958984 0)"/>
     <use xlink:href="#DejaVuSans-5f" transform="translate(571.337891 0)"/>
     <use xlink:href="#DejaVuSans-64" transform="translate(621.337891 0)"/>
     <use xlink:href="#DejaVuSans-65" transform="translate(684.814453 0)"/>
     <use xlink:href="#DejaVuSans-6d" transform="translate(746.337891 0)"/>
     <use xlink:href="#DejaVuSans-6f" transform="translate(843.75 0)"/>
     <use xlink:href="#DejaVuSans-2e" transform="translate(903.181641 0)"/>
     <use xlink:href="#DejaVuSans-70" transform="translate(934.96875 0)"/>
     <use xlink:href="#DejaVuSans-79" transform="translate(998.445312 0)"/>
     <use xlink:href="#DejaVuSans-20" transform="translate(1057.625 0)"/>
     <use xlink:href="#DejaVuSans-2d" transform="translate(1089.412109 0)"/>
     <use xlink:href="#DejaVuSans-2d" transform="translate(1125.496094 0)"/>
     <use xlink:href="#DejaVuSans-61" transform="translate(1161.580078 0)"/>
     <use xlink:href="#DejaVuSans-6c" transform="translate(1222.859375 0)"/>
     <use xlink:href="#DejaVuSans-6c" transform="translate(1250.642578 0)"/>
     <use xlink:href="#DejaVuSans-20" transform="translate(1278.425781 0)"/>
     <use xlink:href="#DejaVuSans-20" transform="translate(1310.212891 0)"/>
     <use xlink:href="#DejaVuSans-77" transform="translate(1342 0)"/>
     <use xlink:href="#DejaVuSans-69" transform="translate(1423.787109 0)"/>
     <use xlink:href="#DejaVuSans-74" transform="translate(1451.570312 0)"/>
     <use xlink:href="#DejaVuSans-68" transform="translate(1490.779297 0)"/>
     <use xlink:href="#DejaVuSans-20" transform="translate(1554.158203 0)"/>
     <use xlink:href="#DejaVuSans-74" transform="translate(1585.945312 0)"/>
     <use xlink:href="#DejaVuSans-68" transform="translate(1625.154297 0)"/>
     <use xlink:href="#DejaVuSans-65" transform="translate(1688.533203 0)"/>
     <use xlink:href="#DejaVuSans-20" transform="translate(1750.056641 0)"/>
     <use xlink:href="#DejaVuSans-76" transform="translate(1781.84375 0)"/>
     <use xlink:href="#DejaVuSans-4c" transform="translate(1841.023438 0)"/>
     <use xlink:href="#DejaVuSans-4c" transform="translate(1896.736328 0)"/>
     <use xlink:href="#DejaVuSans-4d" transform="translate(1952.449219 0)"/>
     <use xlink:href="#DejaVuSans-20" transform="translate(2038.728516 0)"/>
     <use xlink:href="#DejaVuSans-73" transform="translate(2070.515625 0)"/>
     <use xlink:href="#DejaVuSans-65" transform="translate(2122.615234 0)"/>
     <use xlink:href="#DejaVuSans-72" transform="translate(2184.138672 0)"/>
     <use xlink:href="#DejaVuSans-76" transform="translate(2225.251953 0)"/>
     <use xlink:href="#DejaVuSans-65" transform="translate(2284.431641 0)"/>
     <use xlink:href="#DejaVuSans-72" transform="translate(2345.955078 0)"/>
     <use xlink:href="#DejaVuSans-20" transform="translate(2387.068359 0)"/>
     <use xlink:href="#DejaVuSans-75" transform="translate(2418.855469 0)"/>
     <use xlink:href="#DejaVuSans-70" transform="translate(2482.234375 0)"/>
     <use xlink:href="#DejaVuSans-29" transform="translate(2545.710938 0)"/>
     <use xlink:href="#DejaVuSans-2e" transform="translate(2584.724609 0)"/>
    </g>
   </g>
   <g id="text_2">
    <!-- Figure 11 — Per-module wall-clock latency  (stub) -->
    <g style="fill: #262626" transform="translate(111.896803 15.558281) scale(0.11 -0.11)">
     <defs>
      <path id="DejaVuSans-Bold-46" d="M 588 4666 
L 3834 4666 
L 3834 3756 
L 1791 3756 
L 1791 2888 
L 3713 2888 
L 3713 1978 
L 1791 1978 
L 1791 0 
L 588 0 
L 588 4666 
z
" transform="scale(0.015625)"/>
      <path id="DejaVuSans-Bold-69" d="M 538 3500 
L 1656 3500 
L 1656 0 
L 538 0 
L 538 3500 
z
M 538 4863 
L 1656 4863 
L 1656 3950 
L 538 3950 
L 538 4863 
z
" transform="scale(0.015625)"/>
      <path id="DejaVuSans-Bold-67" d="M 2919 594 
Q 2688 288 2409 144 
Q 2131 0 1766 0 
Q 1125 0 706 504 
Q 288 1009 288 1791 
Q 288 2575 706 3076 
Q 1125 3578 1766 3578 
Q 2131 3578 2409 3434 
Q 2688 3291 2919 2981 
L 2919 3500 
L 4044 3500 
L 4044 353 
Q 4044 -491 3511 -936 
Q 2978 -1381 1966 -1381 
Q 1638 -1381 1331 -1331 
Q 1025 -1281 716 -1178 
L 716 -306 
Q 1009 -475 1290 -558 
Q 1572 -641 1856 -641 
Q 2406 -641 2662 -400 
Q 2919 -159 2919 353 
L 2919 594 
z
M 2181 2772 
Q 1834 2772 1640 2515 
Q 1447 2259 1447 1791 
Q 1447 1309 1634 1061 
Q 1822 813 2181 813 
Q 2531 813 2725 1069 
Q 2919 1325 2919 1791 
Q 2919 2259 2725 2515 
Q 2531 2772 2181 2772 
z
" transform="scale(0.015625)"/>
      <path id="DejaVuSans-Bold-75" d="M 500 1363 
L 500 3500 
L 1625 3500 
L 1625 3150 
Q 1625 2866 1622 2436 
Q 1619 2006 1619 1863 
Q 1619 1441 1641 1255 
Q 1663 1069 1716 984 
Q 1784 875 1895 815 
Q 2006 756 2150 756 
Q 2500 756 2700 1025 
Q 2900 1294 2900 1772 
L 2900 3500 
L 4019 3500 
L 4019 0 
L 2900 0 
L 2900 506 
Q 2647 200 2364 54 
Q 2081 -91 1741 -91 
Q 1134 -91 817 281 
Q 500 653 500 1363 
z
" transform="scale(0.015625)"/>
      <path id="DejaVuSans-Bold-72" d="M 3138 2547 
Q 2991 2616 2845 2648 
Q 2700 2681 2553 2681 
Q 2122 2681 1889 2404 
Q 1656 2128 1656 1613 
L 1656 0 
L 538 0 
L 538 3500 
L 1656 3500 
L 1656 2925 
Q 1872 3269 2151 3426 
Q 2431 3584 2822 3584 
Q 2878 3584 2943 3579 
Q 3009 3575 3134 3559 
L 3138 2547 
z
" transform="scale(0.015625)"/>
      <path id="DejaVuSans-Bold-65" d="M 4031 1759 
L 4031 1441 
L 1416 1441 
Q 1456 1047 1700 850 
Q 1944 653 2381 653 
Q 2734 653 3104 758 
Q 3475 863 3866 1075 
L 3866 213 
Q 3469 63 3072 -14 
Q 2675 -91 2278 -91 
Q 1328 -91 801 392 
Q 275 875 275 1747 
Q 275 2603 792 3093 
Q 1309 3584 2216 3584 
Q 3041 3584 3536 3087 
Q 4031 2591 4031 1759 
z
M 2881 2131 
Q 2881 2450 2695 2645 
Q 2509 2841 2209 2841 
Q 1884 2841 1681 2658 
Q 1478 2475 1428 2131 
L 2881 2131 
z
" transform="scale(0.015625)"/>
      <path id="DejaVuSans-Bold-20" transform="scale(0.015625)"/>
      <path id="DejaVuSans-Bold-31" d="M 750 831 
L 1813 831 
L 1813 3847 
L 722 3622 
L 722 4441 
L 1806 4666 
L 2950 4666 
L 2950 831 
L 4013 831 
L 4013 0 
L 750 0 
L 750 831 
z
" transform="scale(0.015625)"/>
      <path id="DejaVuSans-Bold-2014" d="M 344 2156 
L 6056 2156 
L 6056 1350 
L 344 1350 
L 344 2156 
z
" transform="scale(0.015625)"/>
      <path id="DejaVuSans-Bold-50" d="M 588 4666 
L 2584 4666 
Q 3475 4666 3951 4270 
Q 4428 3875 4428 3144 
Q 4428 2409 3951 2014 
Q 3475 1619 2584 1619 
L 1791 1619 
L 1791 0 
L 588 0 
L 588 4666 
z
M 1791 3794 
L 1791 2491 
L 2456 2491 
Q 2806 2491 2997 2661 
Q 3188 2831 3188 3144 
Q 3188 3456 2997 3625 
Q 2806 3794 2456 3794 
L 1791 3794 
z
" transform="scale(0.015625)"/>
      <path id="DejaVuSans-Bold-2d" d="M 347 2297 
L 2309 2297 
L 2309 1388 
L 347 1388 
L 347 2297 
z
" transform="scale(0.015625)"/>
      <path id="DejaVuSans-Bold-6d" d="M 3781 2919 
Q 3994 3244 4286 3414 
Q 4578 3584 4928 3584 
Q 5531 3584 5847 3212 
Q 6163 2841 6163 2131 
L 6163 0 
L 5038 0 
L 5038 1825 
Q 5041 1866 5042 1909 
Q 5044 1953 5044 2034 
Q 5044 2406 4934 2573 
Q 4825 2741 4581 2741 
Q 4263 2741 4089 2478 
Q 3916 2216 3909 1719 
L 3909 0 
L 2784 0 
L 2784 1825 
Q 2784 2406 2684 2573 
Q 2584 2741 2328 2741 
Q 2006 2741 1831 2477 
Q 1656 2213 1656 1722 
L 1656 0 
L 531 0 
L 531 3500 
L 1656 3500 
L 1656 2988 
Q 1863 3284 2130 3434 
Q 2397 3584 2719 3584 
Q 3081 3584 3359 3409 
Q 3638 3234 3781 2919 
z
" transform="scale(0.015625)"/>
      <path id="DejaVuSans-Bold-6f" d="M 2203 2784 
Q 1831 2784 1636 2517 
Q 1441 2250 1441 1747 
Q 1441 1244 1636 976 
Q 1831 709 2203 709 
Q 2569 709 2762 976 
Q 2956 1244 2956 1747 
Q 2956 2250 2762 2517 
Q 2569 2784 2203 2784 
z
M 2203 3584 
Q 3106 3584 3614 3096 
Q 4122 2609 4122 1747 
Q 4122 884 3614 396 
Q 3106 -91 2203 -91 
Q 1297 -91 786 396 
Q 275 884 275 1747 
Q 275 2609 786 3096 
Q 1297 3584 2203 3584 
z
" transform="scale(0.015625)"/>
      <path id="DejaVuSans-Bold-64" d="M 2919 2988 
L 2919 4863 
L 4044 4863 
L 4044 0 
L 2919 0 
L 2919 506 
Q 2688 197 2409 53 
Q 2131 -91 1766 -91 
Q 1119 -91 703 423 
Q 288 938 288 1747 
Q 288 2556 703 3070 
Q 1119 3584 1766 3584 
Q 2128 3584 2408 3439 
Q 2688 3294 2919 2988 
z
M 2181 722 
Q 2541 722 2730 984 
Q 2919 1247 2919 1747 
Q 2919 2247 2730 2509 
Q 2541 2772 2181 2772 
Q 1825 2772 1636 2509 
Q 1447 2247 1447 1747 
Q 1447 1247 1636 984 
Q 1825 722 2181 722 
z
" transform="scale(0.015625)"/>
      <path id="DejaVuSans-Bold-6c" d="M 538 4863 
L 1656 4863 
L 1656 0 
L 538 0 
L 538 4863 
z
" transform="scale(0.015625)"/>
      <path id="DejaVuSans-Bold-77" d="M 225 3500 
L 1313 3500 
L 1900 1088 
L 2491 3500 
L 3425 3500 
L 4013 1113 
L 4603 3500 
L 5691 3500 
L 4769 0 
L 3547 0 
L 2956 2406 
L 2369 0 
L 1147 0 
L 225 3500 
z
" transform="scale(0.015625)"/>
      <path id="DejaVuSans-Bold-61" d="M 2106 1575 
Q 1756 1575 1579 1456 
Q 1403 1338 1403 1106 
Q 1403 894 1545 773 
Q 1688 653 1941 653 
Q 2256 653 2472 879 
Q 2688 1106 2688 1447 
L 2688 1575 
L 2106 1575 
z
M 3816 1997 
L 3816 0 
L 2688 0 
L 2688 519 
Q 2463 200 2181 54 
Q 1900 -91 1497 -91 
Q 953 -91 614 226 
Q 275 544 275 1050 
Q 275 1666 698 1953 
Q 1122 2241 2028 2241 
L 2688 2241 
L 2688 2328 
Q 2688 2594 2478 2717 
Q 2269 2841 1825 2841 
Q 1466 2841 1156 2769 
Q 847 2697 581 2553 
L 581 3406 
Q 941 3494 1303 3539 
Q 1666 3584 2028 3584 
Q 2975 3584 3395 3211 
Q 3816 2838 3816 1997 
z
" transform="scale(0.015625)"/>
      <path id="DejaVuSans-Bold-63" d="M 3366 3391 
L 3366 2478 
Q 3138 2634 2908 2709 
Q 2678 2784 2431 2784 
Q 1963 2784 1702 2511 
Q 1441 2238 1441 1747 
Q 1441 1256 1702 982 
Q 1963 709 2431 709 
Q 2694 709 2930 787 
Q 3166 866 3366 1019 
L 3366 103 
Q 3103 6 2833 -42 
Q 2563 -91 2291 -91 
Q 1344 -91 809 395 
Q 275 881 275 1747 
Q 275 2613 809 3098 
Q 1344 3584 2291 3584 
Q 2566 3584 2833 3536 
Q 3100 3488 3366 3391 
z
" transform="scale(0.015625)"/>
      <path id="DejaVuSans-Bold-6b" d="M 538 4863 
L 1656 4863 
L 1656 2216 
L 2944 3500 
L 4244 3500 
L 2534 1894 
L 4378 0 
L 3022 0 
L 1656 1459 
L 1656 0 
L 538 0 
L 538 4863 
z
" transform="scale(0.015625)"/>
      <path id="DejaVuSans-Bold-74" d="M 1759 4494 
L 1759 3500 
L 2913 3500 
L 2913 2700 
L 1759 2700 
L 1759 1216 
Q 1759 972 1856 886 
Q 1953 800 2241 800 
L 2816 800 
L 2816 0 
L 1856 0 
Q 1194 0 917 276 
Q 641 553 641 1216 
L 641 2700 
L 84 2700 
L 84 3500 
L 641 3500 
L 641 4494 
L 1759 4494 
z
" transform="scale(0.015625)"/>
      <path id="DejaVuSans-Bold-6e" d="M 4056 2131 
L 4056 0 
L 2931 0 
L 2931 347 
L 2931 1631 
Q 2931 2084 2911 2256 
Q 2891 2428 2841 2509 
Q 2775 2619 2662 2680 
Q 2550 2741 2406 2741 
Q 2056 2741 1856 2470 
Q 1656 2200 1656 1722 
L 1656 0 
L 538 0 
L 538 3500 
L 1656 3500 
L 1656 2988 
Q 1909 3294 2193 3439 
Q 2478 3584 2822 3584 
Q 3428 3584 3742 3212 
Q 4056 2841 4056 2131 
z
" transform="scale(0.015625)"/>
      <path id="DejaVuSans-Bold-79" d="M 78 3500 
L 1197 3500 
L 2138 1125 
L 2938 3500 
L 4056 3500 
L 2584 -331 
Q 2363 -916 2067 -1148 
Q 1772 -1381 1288 -1381 
L 641 -1381 
L 641 -647 
L 991 -647 
Q 1275 -647 1404 -556 
Q 1534 -466 1606 -231 
L 1638 -134 
L 78 3500 
z
" transform="scale(0.015625)"/>
      <path id="DejaVuSans-Bold-28" d="M 2413 -844 
L 1484 -844 
Q 1006 -72 778 623 
Q 550 1319 550 2003 
Q 550 2688 779 3389 
Q 1009 4091 1484 4856 
L 2413 4856 
Q 2013 4116 1813 3408 
Q 1613 2700 1613 2009 
Q 1613 1319 1811 609 
Q 2009 -100 2413 -844 
z
" transform="scale(0.015625)"/>
      <path id="DejaVuSans-Bold-73" d="M 3272 3391 
L 3272 2541 
Q 2913 2691 2578 2766 
Q 2244 2841 1947 2841 
Q 1628 2841 1473 2761 
Q 1319 2681 1319 2516 
Q 1319 2381 1436 2309 
Q 1553 2238 1856 2203 
L 2053 2175 
Q 2913 2066 3209 1816 
Q 3506 1566 3506 1031 
Q 3506 472 3093 190 
Q 2681 -91 1863 -91 
Q 1516 -91 1145 -36 
Q 775 19 384 128 
L 384 978 
Q 719 816 1070 734 
Q 1422 653 1784 653 
Q 2113 653 2278 743 
Q 2444 834 2444 1013 
Q 2444 1163 2330 1236 
Q 2216 1309 1875 1350 
L 1678 1375 
Q 931 1469 631 1722 
Q 331 1975 331 2491 
Q 331 3047 712 3315 
Q 1094 3584 1881 3584 
Q 2191 3584 2531 3537 
Q 2872 3491 3272 3391 
z
" transform="scale(0.015625)"/>
      <path id="DejaVuSans-Bold-62" d="M 2400 722 
Q 2759 722 2948 984 
Q 3138 1247 3138 1747 
Q 3138 2247 2948 2509 
Q 2759 2772 2400 2772 
Q 2041 2772 1848 2508 
Q 1656 2244 1656 1747 
Q 1656 1250 1848 986 
Q 2041 722 2400 722 
z
M 1656 2988 
Q 1888 3294 2169 3439 
Q 2450 3584 2816 3584 
Q 3463 3584 3878 3070 
Q 4294 2556 4294 1747 
Q 4294 938 3878 423 
Q 3463 -91 2816 -91 
Q 2450 -91 2169 54 
Q 1888 200 1656 506 
L 1656 0 
L 538 0 
L 538 4863 
L 1656 4863 
L 1656 2988 
z
" transform="scale(0.015625)"/>
      <path id="DejaVuSans-Bold-29" d="M 513 -844 
Q 913 -100 1113 609 
Q 1313 1319 1313 2009 
Q 1313 2700 1113 3408 
Q 913 4116 513 4856 
L 1441 4856 
Q 1916 4091 2145 3389 
Q 2375 2688 2375 2003 
Q 2375 1319 2147 623 
Q 1919 -72 1441 -844 
L 513 -844 
z
" transform="scale(0.015625)"/>
     </defs>
     <use xlink:href="#DejaVuSans-Bold-46"/>
     <use xlink:href="#DejaVuSans-Bold-69" transform="translate(68.310547 0)"/>
     <use xlink:href="#DejaVuSans-Bold-67" transform="translate(102.587891 0)"/>
     <use xlink:href="#DejaVuSans-Bold-75" transform="translate(174.169922 0)"/>
     <use xlink:href="#DejaVuSans-Bold-72" transform="translate(245.361328 0)"/>
     <use xlink:href="#DejaVuSans-Bold-65" transform="translate(294.677734 0)"/>
     <use xlink:href="#DejaVuSans-Bold-20" transform="translate(362.5 0)"/>
     <use xlink:href="#DejaVuSans-Bold-31" transform="translate(397.314453 0)"/>
     <use xlink:href="#DejaVuSans-Bold-31" transform="translate(466.894531 0)"/>
     <use xlink:href="#DejaVuSans-Bold-20" transform="translate(536.474609 0)"/>
     <use xlink:href="#DejaVuSans-Bold-2014" transform="translate(571.289062 0)"/>
     <use xlink:href="#DejaVuSans-Bold-20" transform="translate(671.289062 0)"/>
     <use xlink:href="#DejaVuSans-Bold-50" transform="translate(706.103516 0)"/>
     <use xlink:href="#DejaVuSans-Bold-65" transform="translate(779.394531 0)"/>
     <use xlink:href="#DejaVuSans-Bold-72" transform="translate(847.216797 0)"/>
     <use xlink:href="#DejaVuSans-Bold-2d" transform="translate(896.533203 0)"/>
     <use xlink:href="#DejaVuSans-Bold-6d" transform="translate(938.037109 0)"/>
     <use xlink:href="#DejaVuSans-Bold-6f" transform="translate(1042.236328 0)"/>
     <use xlink:href="#DejaVuSans-Bold-64" transform="translate(1110.9375 0)"/>
     <use xlink:href="#DejaVuSans-Bold-75" transform="translate(1182.519531 0)"/>
     <use xlink:href="#DejaVuSans-Bold-6c" transform="translate(1253.710938 0)"/>
     <use xlink:href="#DejaVuSans-Bold-65" transform="translate(1287.988281 0)"/>
     <use xlink:href="#DejaVuSans-Bold-20" transform="translate(1355.810547 0)"/>
     <use xlink:href="#DejaVuSans-Bold-77" transform="translate(1390.625 0)"/>
     <use xlink:href="#DejaVuSans-Bold-61" transform="translate(1483.007812 0)"/>
     <use xlink:href="#DejaVuSans-Bold-6c" transform="translate(1550.488281 0)"/>
     <use xlink:href="#DejaVuSans-Bold-6c" transform="translate(1584.765625 0)"/>
     <use xlink:href="#DejaVuSans-Bold-2d" transform="translate(1619.042969 0)"/>
     <use xlink:href="#DejaVuSans-Bold-63" transform="translate(1660.546875 0)"/>
     <use xlink:href="#DejaVuSans-Bold-6c" transform="translate(1719.824219 0)"/>
     <use xlink:href="#DejaVuSans-Bold-6f" transform="translate(1754.101562 0)"/>
     <use xlink:href="#DejaVuSans-Bold-63" transform="translate(1822.802734 0)"/>
     <use xlink:href="#DejaVuSans-Bold-6b" transform="translate(1882.080078 0)"/>
     <use xlink:href="#DejaVuSans-Bold-20" transform="translate(1948.583984 0)"/>
     <use xlink:href="#DejaVuSans-Bold-6c" transform="translate(1983.398438 0)"/>
     <use xlink:href="#DejaVuSans-Bold-61" transform="translate(2017.675781 0)"/>
     <use xlink:href="#DejaVuSans-Bold-74" transform="translate(2085.15625 0)"/>
     <use xlink:href="#DejaVuSans-Bold-65" transform="translate(2132.958984 0)"/>
     <use xlink:href="#DejaVuSans-Bold-6e" transform="translate(2200.78125 0)"/>
     <use xlink:href="#DejaVuSans-Bold-63" transform="translate(2271.972656 0)"/>
     <use xlink:href="#DejaVuSans-Bold-79" transform="translate(2331.25 0)"/>
     <use xlink:href="#DejaVuSans-Bold-20" transform="translate(2396.435547 0)"/>
     <use xlink:href="#DejaVuSans-Bold-20" transform="translate(2431.25 0)"/>
     <use xlink:href="#DejaVuSans-Bold-28" transform="translate(2466.064453 0)"/>
     <use xlink:href="#DejaVuSans-Bold-73" transform="translate(2511.767578 0)"/>
     <use xlink:href="#DejaVuSans-Bold-74" transform="translate(2571.289062 0)"/>
     <use xlink:href="#DejaVuSans-Bold-75" transform="translate(2619.091797 0)"/>
     <use xlink:href="#DejaVuSans-Bold-62" transform="translate(2690.283203 0)"/>
     <use xlink:href="#DejaVuSans-Bold-29" transform="translate(2761.865234 0)"/>
    </g>
   </g>
  </g>
 </g>
</svg>
